<?xml version="1.0" encoding="UTF-8"?>
<svg xmlns="http://www.w3.org/2000/svg" width="900" height="420" viewBox="0 0 900 420">
  <rect width="900" height="420" fill="#fff"/>
  <line x1="60" y1="360.0" x2="860" y2="360.0" stroke="#eee"/><text x="52" y="364.0" font-size="12" fill="#666" text-anchor="end">3600</text><line x1="60" y1="256.7" x2="860" y2="256.7" stroke="#eee"/><text x="52" y="260.7" font-size="12" fill="#666" text-anchor="end">4000</text><line x1="60" y1="153.3" x2="860" y2="153.3" stroke="#eee"/><text x="52" y="157.3" font-size="12" fill="#666" text-anchor="end">4400</text><line x1="60" y1="50.0" x2="860" y2="50.0" stroke="#eee"/><text x="52" y="54.0" font-size="12" fill="#666" text-anchor="end">4800</text>
  <line x1="60.0" y1="360" x2="60.0" y2="365" stroke="#999"/><line x1="154.4" y1="360" x2="154.4" y2="365" stroke="#999"/><line x1="250.3" y1="360" x2="250.3" y2="365" stroke="#999"/><line x1="344.7" y1="360" x2="344.7" y2="365" stroke="#999"/><line x1="439.1" y1="360" x2="439.1" y2="365" stroke="#999"/><line x1="530.4" y1="360" x2="530.4" y2="365" stroke="#999"/><line x1="624.8" y1="360" x2="624.8" y2="365" stroke="#999"/><line x1="719.2" y1="360" x2="719.2" y2="365" stroke="#999"/><line x1="815.1" y1="360" x2="815.1" y2="365" stroke="#999"/>
  <text x="60.0" y="382" font-size="12" fill="#666" text-anchor="middle">05月</text><text x="154.4" y="382" font-size="12" fill="#666" text-anchor="middle">07月</text><text x="250.3" y="382" font-size="12" fill="#666" text-anchor="middle">09月</text><text x="344.7" y="382" font-size="12" fill="#666" text-anchor="middle">11月</text><text x="439.1" y="382" font-size="12" fill="#666" text-anchor="middle">2027年01月</text><text x="530.4" y="382" font-size="12" fill="#666" text-anchor="middle">03月</text><text x="624.8" y="382" font-size="12" fill="#666" text-anchor="middle">05月</text><text x="719.2" y="382" font-size="12" fill="#666" text-anchor="middle">07月</text><text x="815.1" y="382" font-size="12" fill="#666" text-anchor="middle">09月</text>
  <polyline points="67.7,215.3 69.3,210.1 70.8,210.2 75.5,198.5 77.0,201.3 78.6,194.0 80.1,210.7 81.7,221.7 86.3,222.7 87.9,212.9 89.4,214.8 90.9,236.7 92.5,227.5 97.1,217.3 98.7,219.1 100.2,232.5 101.8,231.2 103.3,239.0 108.0,241.8 109.5,237.3 111.1,235.0 112.6,241.7 114.2,249.5 118.8,267.2 120.3,254.1 121.9,258.4 123.4,260.0 125.0,248.5 129.6,231.7 131.2,232.9 132.7,228.7 134.3,233.3 140.5,214.5 142.0,229.2 143.6,228.0 145.1,225.6 146.7,249.6 151.3,237.6 152.8,232.3 154.4,227.6 155.9,249.2 157.5,245.4 162.1,246.0 163.7,259.2 165.2,264.2 166.8,247.2 168.3,257.7 173.0,278.9 174.5,265.2 176.1,268.1 177.6,287.0 179.1,317.6 183.8,309.3 185.3,291.7 186.9,291.0 188.4,288.5 190.0,304.7 194.6,293.3 196.2,304.9 197.7,301.0 199.3,307.1 200.8,300.0 205.5,305.8 207.0,302.6 208.5,288.1 210.1,282.4" fill="none" stroke="#242a35" stroke-width="2"/>
  <polyline points="183.8,323.5 228.7,242.1 253.4,292.4 292.1,160.6 312.2,210.6 335.4,129.1" fill="none" stroke="#16213e" stroke-width="2" stroke-dasharray="6,4"/>
  <rect x="178.79110251450678" y="318.5465833333333" width="10" height="10" fill="#2f9e44"/><text x="183.79110251450678" y="311.5465833333333" font-size="11" fill="#2f9e44" text-anchor="middle" font-weight="bold">买① 浪⑤起 3741.11</text><rect x="223.66537717601545" y="237.05274999999995" width="10" height="10" fill="#16213e"/><text x="228.66537717601545" y="230.05274999999995" font-size="11" fill="#16213e" text-anchor="middle" font-weight="bold">子浪ⅰ 4056.57</text><rect x="248.42359767891685" y="287.4148333333334" width="10" height="10" fill="#2f9e44"/><text x="253.42359767891685" y="280.4148333333334" font-size="11" fill="#2f9e44" text-anchor="middle" font-weight="bold">买② 子浪ⅱ 3861.62</text><rect x="287.10831721470015" y="155.55891666666673" width="10" height="10" fill="#c23531"/><text x="292.10831721470015" y="148.55891666666673" font-size="11" fill="#c23531" text-anchor="middle" font-weight="bold">减仓 子浪ⅲ 4372.03</text><rect x="307.2243713733075" y="205.55933333333346" width="10" height="10" fill="#2f9e44"/><text x="312.2243713733075" y="198.55933333333346" font-size="11" fill="#2f9e44" text-anchor="middle" font-weight="bold">买③ 子浪ⅳ 4178.48</text><rect x="330.4352030947776" y="124.0655000000001" width="10" height="10" fill="#c23531"/><text x="335.4352030947776" y="117.0655000000001" font-size="11" fill="#c23531" text-anchor="middle" font-weight="bold">卖① 子浪ⅴ 4493.94</text>
  <text x="450.0" y="25" font-size="16" fill="#16213e" text-anchor="middle" font-weight="bold">浪⑤子浪走势预测（本地数据生成）</text>
  <text x="890" y="410" font-size="11" fill="#999" text-anchor="end">子浪ⅴ date = 2026-10-26（应落在10月底）</text>
</svg>